/* XPM */
static char *_7a8010bac9d4ab4f81bdbc0246bfefdofhxI17ccii2IdmR[] = {
/* columns rows colors chars-per-pixel */
"64 64 251 2 ",
"   c #0D0101",
".  c #0A0209",
"X  c #130102",
"o  c #1B0103",
"O  c #19070B",
"+  c #040418",
"@  c #190C14",
"#  c #1C1216",
"$  c #18100D",
"%  c #230101",
"&  c #2B0000",
"*  c #260B0B",
"=  c #370703",
"-  c #37120B",
";  c #260D15",
":  c #330D12",
">  c #2B131B",
",  c #271617",
"<  c #331414",
"1  c #33141A",
"2  c #381918",
"3  c #2B120D",
"4  c #35221D",
"5  c #060925",
"6  c #150B25",
"7  c #0B132A",
"8  c #171628",
"9  c #0A1B38",
"0  c #161C35",
"q  c #0C0A31",
"w  c #281727",
"e  c #361A26",
"r  c #271C34",
"t  c #341E32",
"y  c #1C233B",
"u  c #192338",
"i  c #2C262A",
"p  c #33232B",
"a  c #382629",
"s  c #242236",
"d  c #23253B",
"f  c #2B243B",
"g  c #282939",
"h  c #372936",
"j  c #39333A",
"k  c #353130",
"l  c #461609",
"z  c #461A17",
"x  c #4B130C",
"c  c #4B231B",
"v  c #552316",
"b  c #592B17",
"n  c #662F19",
"m  c #431D26",
"M  c #461A31",
"N  c #482628",
"B  c #552B2A",
"V  c #5A342A",
"C  c #452936",
"Z  c #552E34",
"A  c #43343C",
"S  c #493638",
"D  c #593638",
"F  c #49392F",
"G  c #68382B",
"H  c #663936",
"J  c #6D362B",
"K  c #56423B",
"L  c #694338",
"P  c #764637",
"I  c #734A33",
"U  c #271E43",
"Y  c #192A47",
"T  c #173153",
"R  c #292947",
"E  c #352A46",
"W  c #2B3449",
"Q  c #383649",
"!  c #283656",
"~  c #3A3855",
"^  c #312C51",
"/  c #313C60",
"(  c #483947",
")  c #573A44",
"_  c #453A57",
"`  c #4E364B",
"'  c #443A65",
"]  c #663D41",
"[  c #3A4459",
"{  c #2C405B",
"}  c #3C4764",
"|  c #3F536C",
" . c #484348",
".. c #58464A",
"X. c #484759",
"o. c #574A55",
"O. c #595458",
"+. c #535255",
"@. c #664947",
"#. c #774A46",
"$. c #68534D",
"%. c #795248",
"&. c #644A55",
"*. c #675658",
"=. c #775857",
"-. c #764E52",
";. c #78645E",
":. c #6D645B",
">. c #474866",
",. c #5B4D66",
"<. c #49536A",
"1. c #575769",
"2. c #4B5774",
"3. c #565975",
"4. c #4F4F73",
"5. c #655A68",
"6. c #765A65",
"7. c #655C72",
"8. c #6C536B",
"9. c #5C616A",
"0. c #5C6378",
"q. c #4F6177",
"w. c #696368",
"e. c #7B6565",
"r. c #776768",
"t. c #666779",
"y. c #796876",
"u. c #6C727D",
"i. c #7B7479",
"p. c #7D726D",
"a. c #82493A",
"s. c #84523B",
"d. c #844D45",
"f. c #875749",
"g. c #865A56",
"h. c #935E57",
"j. c #935B4A",
"k. c #8A645A",
"l. c #986657",
"z. c #966952",
"x. c #A97157",
"c. c #875E6D",
"v. c #876868",
"b. c #956964",
"n. c #8A736B",
"m. c #987469",
"M. c #866976",
"N. c #956D75",
"B. c #887776",
"V. c #977977",
"C. c #A87967",
"Z. c #B3796A",
"A. c #A77C74",
"S. c #A87164",
"D. c #98837A",
"F. c #99816D",
"G. c #AB826A",
"H. c #B7856B",
"J. c #A88579",
"K. c #B88977",
"L. c #BD927B",
"P. c #C48A78",
"I. c #C6957A",
"U. c #CD9073",
"Y. c #DBA87D",
"T. c #595684",
"R. c #666884",
"E. c #766784",
"W. c #6B7386",
"Q. c #787886",
"!. c #787993",
"~. c #5F6584",
"^. c #877885",
"/. c #857795",
"(. c #8D7586",
"). c #788396",
"_. c #748594",
"`. c #898589",
"'. c #988688",
"]. c #888996",
"[. c #978A97",
"{. c #979498",
"}. c #919197",
"|. c #A78A86",
" X c #B58D87",
".X c #A8938C",
"XX c #B79687",
"oX c #A79796",
"OX c #B49B96",
"+X c #A68D95",
"@X c #B9A79A",
"#X c #B3A295",
"$X c #9699A8",
"%X c #9A9CB5",
"&X c #8A8EA5",
"*X c #A69CA9",
"=X c #B29EA8",
"-X c #9BA5B5",
";X c #9AA2AA",
":X c #A6A3AA",
">X c #B6A8A8",
",X c #BDB2AC",
"<X c #A6A7B5",
"1X c #B9AAB4",
"2X c #BAB6B7",
"3X c #A9B1BE",
"4X c #C79885",
"5X c #D59B89",
"6X c #C99D93",
"7X c #C7A489",
"8X c #D6A58A",
"9X c #C6A798",
"0X c #D8A995",
"qX c #D7B499",
"wX c #C6B392",
"eX c #E3A996",
"rX c #E7B296",
"tX c #C8ACA5",
"yX c #D6B6A8",
"uX c #C8B6B6",
"iX c #CFB5B0",
"pX c #E6BBA5",
"aX c #ECBAAC",
"sX c #BCC0BF",
"dX c #DBC7BA",
"fX c #CAC1B0",
"gX c #E8CBB5",
"hX c #E9D5B9",
"jX c #F9D7B8",
"kX c #F3C9AE",
"lX c #F8E2BC",
"zX c #EEC29D",
"xX c #B2B5C4",
"cX c #C4BAC4",
"vX c #D4BEC7",
"bX c #BCC4CA",
"nX c #CAC6C6",
"mX c #D4C9C8",
"MX c #D8D3C9",
"NX c #DDD7D3",
"BX c #D2CBD4",
"VX c #E7D6C7",
"CX c #F9DBC5",
"ZX c #E8DBD5",
"AX c #E5CBC2",
"SX c #FBEACC",
"DX c #F8E4C8",
"FX c #F8E8D7",
"GX c #F3E9D6",
"HX c #F7EBE6",
"JX c #F2E8E5",
/* pixels */
"T T 9 5 0 _ E r t C p w 6 6 t M e ` _ E 5 W ..K N o.4.R ^.=X%.Z.x.s.9XM.R 3.*.N K ..Q 5 f ` ) M C t 6 6 w p A p s R ~ 8 + 7 Y ! ",
"Y T ! 0 5 R Q f A p > w w w N Z ) M.y.3.! R ( V.n.h >.[ ( (.#.P.K.I V.( ~ >.p V.V...f ! 7.y.6.) Z N w w e ; > A s Q s 7 0 ! ! Y ",
"9 T ! } 0 y <.f &.) < D > ) H g.N.&._ &X} R )  X X..g [ 1.B.=.4X4Xk.n.1.} R .. X XD R } /.o.&.V.f.V ) > D 2 ) &.j X.d u ! ! T Y ",
"9 Y ! <.W R [ 9.o.e.v.v.N D j.H.g.Z M.7.~ E ( 6.=.A R 0.<XnX9X6X4XtXdX:X~.R S =.=.( ^ ~ 7.y.D g.K.h.D N k.k.e...1.X.g W 2./ Y 9 ",
"8 5 u <.W.0.t.9.g i.v.|.K.s.x.eXa.j. X=.[.t.W 8 Q 8 X.;XnXNXFXAXAXFXZXxX%X[ 7 Q 8 E t.^.=. Xf.j.5Xl.P J..XB.Q.Q 1.9.w.W.<.u + 8 ",
"r r 0 X.W.0.).<.u.Q.j V.J.d.P Z.eXZ.k.tXuX:XW.W R W <.).D.tXDXSXFXDX,X`.Q.>.R ! y W.$XcXtXg.Z.eXZ.P d.J.'.j Q.u.1.].1.W.~ 8 g # ",
"s Q ~ } W._.$X}.].t.j *X^.) J.z.7X7X#XGXmX$X1.W 7 + ( ..=.yXjXlXlXjXyX=.) Q 5 7 ~ <.{.mXZX9XXX4Xz.A...^.$Xj i.`.].<X).t.>.[ g s ",
"Q s d >.[ W.xXxX>X`.}.&XW.X.V.m.XXwXhXFXfXp.O.E.X.. o.B.J.G.0XjXjX7XK.A.M.o.+ X.t.1.p.fXFXhXwXXXV.V.X.W.$X[.^.,XnXxXu.} >.u d Q ",
"_ X.y 1.W.9.2X'.e.&.O.7.W t.<XNXFXSXSXlXgXqXm.*.w.w ..D c l & J.C.& l c ) ..i w.=.A.yXgXSXSXSXGXNX<X0.^ 7.,.&.e.'.,X9.u.<.0 >._ ",
"E ~ X.5.1.+.{.n.=.=.( ~ R q.3XBXZXCXDXjXrXn l & < 1 1 < & G v C.C.l J & 3 a , < & l I zXjXSXCXZXBX-X0.R _ ( 6.$.B.{. .9.5.( _ E ",
"R Q =.B a y.^.[.....r s 0 0.-X`.OXCXjXjXa.= v v 2 * O : k.5XY.Y.U.Y.5Xf.: X * 1 v v & j.DXjXjXOX`.xX0.8 r f ( o.}.Q.t.i B =.C E ",
"R f D #.|.1XQ !.Q.Q s u 7 [ t.+.J.Z.l d.5Xn 4X6Xv.% X e A.eXx.rXY.x.eXA.1 X * v.4XP.n 4XG G K.A.o.t.X.8 d d ~ W._.Q :X'.%.H h r ",
"0 h C ) M.[.3.3.<.Y Y 9 0 8 X.M.g.x l v jXI.H.K.#.N o ; D %.V P P b g.Z ; X N #.P.x.8XzXl = v g.y.Q 8 0 0 Y Y >.0.1.{.r.D C f 0 ",
"w p N D ) ) t.X.<.W._.q.R + s ^.m = s.eXI.CXb P %.: o ; < XXHXm.N.FX|.1 O X : g.J I DXK.5XJ & N i.f + g 2._.W.2.X.y.) ) D e t w ",
"e m J d.H k.+Xo.;XbX-XW.Q 8 6 h > B H.kXl.L V |..XC O X < iXuX+XoXuXtX3 X O ( =X|.V I z.aXZ.N w h + w Q W.-XbX$Xo.'.g.H d.H m > ",
"M H d.5XS.f.g.B.nXBX].j *.B.5.i X 2 S.j.m.tX;.a , k @ # v.$.j  . .k $.;.O # h , C =.tXb.j.h.2 O i w.^.*.j ].BXmXn.g.f.S.P.P D e ",
"e Z b.l.4XrXH.XXZXJX#Xn.9Xb.N 2 X o 4 a ,X'.4 4 '.i.. ( w.O.2XMXnX2X..6.A . ^.`.2 4 .X>X2 e X o e F m.9Xn.#XJXZXJ.L.rX4Xf.g.C t ",
"t ` c.-.f.L.0X7XVXFXhXjXK.l & z z o X , i.a =.uXmXy.. i j w.oX>X>X{.y.j p O y.BX>X&.k y.# O % z z % z  XgXhXGXVX7X8XK.a.=.M.` t ",
"( ^.,.&.g.k.G.qXhXSXDXjXG = J S.#.: O   4 p +X1Xy.# . p i.i.e (.V.> i.i.k   ; y.=X'.p w X X * #.S.J = L jXjXHXhXqXG.l.g.&.,.y.( ",
"r ,./.E.'.v.yXDXSXjXjXCXI = P.aXb.H : O     ; e e ; X S +XmX&.C C *.nXoXK X ; e w , X   O 3 H l.pXP.& f.DXjXDXSXDXtXv.'.E./.,.t ",
"q R T.^ ~ <XNXVXhXjXkXl.4XqXH.I P H < N K a ,   % b.V H J.VXr.8 r y.VXJ.V H b.o   $ a ..a * L P s.H.pXL.x.kXgXgXMXBX*X~ ~ 3.E 6 ",
"_ Q ~ ^ <.%X<X>XF.pXz.& n 8XjX8XB @.=.OX$.a S F - G H G C.yX5.f f w.yXC.H P G - a F k *.OX=.@.c 7XjX5Xv % m.pXD.:X<X&X4.R ^ Q ( ",
"..S ( Q R 3.).X.@.J.z x C.eXz.A.< oXHXuXO...*XB.b.H D H l.aXoXA j OXyXk.H B H b.p.{...o.uXHX.X< m.l.8Xl.l c  X@. .).2.f ( S ) ..",
"Z n.OXr.8 Y } W p.=.: z H.rXf.V B.JXmX*.X o.BXvXv.%.N 1 |.iX>X( ( >XiXD.3 N %.b.mXmX*.X *.mXJXp.V f.eXZ.- : =.r.g | R 8 r.OXn.S ",
") V..Xe.h >.9 9 1.*.> 1 l.l.G @..XHX'.=.=.a ^.cXyXXXB.i ,.-X-X4.4.xX%X>.k n. XyXuX^.C 6.6.oXHX.XH H h.h.< > 6.5.u 9 } Q =.OXB.) ",
"o.C *.A + W 0 + @ h h O < z - 2 >XZX*.=.iXA f o.9XdX*XX.! 2.R.3.R.~.T.^ X.>XdX>Xo.r ` tX6.*.MX#X2 : N - O h h 8 + 7 W 6 S o.A o.",
"_ _ W d 3.1.Q X.o.a * X X X o > '.,X..e t r ^ f r.,XxXW.R.>.E.(.(.E.>.~.u.2X>Xy.f f h w e O.>XD.< % X   X O a ,.X.W <.3.d E _ ~ ",
"' >.W R.-Xw...(.S < < 3 , .   , *.*.w.^.B.` E s j +.W.0././.6.N.M.6.^./.t.u.+.g 8 h o.i.i.w.*.*.; X   # 3 < e S '...t.-X3.R ' _ ",
"7.E t.<XsXr.A.b.& z l.G a A k . i h i.uXAXOX=.(.X.W 2.&Xy.M.N.v.v.V.M.i.&X2.Q  .V.;.OXVXuXB.h a X a ( p V l.z & m.n.r.2X<Xt.( r.",
"OXr.'.ZXmX@XpXa.= f.5XZ..X^.j , O # *.B.XXyXyXiX:X2.>.t.r.-.A.m.m.A.=.r.1.>.4.<XuXyX9XXXB.*., . , h ^..XC.5Xd.= f.pXtXMXZXB.e.OX",
"%.#.l.gXGXDXjXz.% f.8Xj.iXS ..B.#   o ] #.%..X1X%XR.E.y.N.V.V.|.|.V.V.M.y./.T.<X1X.X-.#.L o   $ ^.&.h dXz.5Xf.% x.jXhXHXAXm.%.f.",
"C.4X4X0XVXSXjXrXb.yXqX4XD * '.uXS ; -.B H N N ( >.~./.M.v.N.J.iXiXV.V.N.c.(.R.>.( N B H N @.O S uX'.O D I.rX9Xl.zXjXFXVX9X4X4XC.",
"x.I.L.9XDXDXkX8XI J.K.C.V * '.uXS * @.N V c Z  .>.t./.c.b.m.J.iXuXV.N.b.M.^.~.<.( S B H B $.* S uX'.O V C.H.J.#.eXjXSXVXqXXXL.S.",
"f.L k.VXFXCXjXs.% k.I.P tXA o.B.; X X K %.#. X>X%X0./.M.N.m.m.|.|.V.A.N.6.^.0.<X1X.X#.#.D X   ; ^. .S iXa.P.#.% z.jXVXHXdXn.#.%.",
"+XM.'.NXMX@X8Xs.= %.5Xl.+Xi.j # . , O.D.XXyXyXiX:X3.>.5.M.=.V.m.m.m.-.M.7.>.1.*XiXyXyX.XB.$., X > j i.|.l.5XP = j.0X@XMXNX^.e.oX",
"7.E t.<XsXw.n.b.& z h.V p Q p @ j j ^.uXZXOXe.`.X.W 3.&Xy.M.N.v.g.V.M.y.].3.Q o.D.;.OXZXuXB.h h O k ( p V j.l & l.m.r.2X<X7.E y.",
"' ' ^ R.$Xu.O.^.C e * * $ . . ; *.5.8.(.y._ E 0 h X.W.E.!./.8.M.M.8.E.!.W.t.,.E d f ` i.^.5.*.*.;   O $ 3 3 ; S B.o.t.%Xt.^ >.' ",
"' ~ E s 2.<.R Q  .p @ X   X o 1 D.>Xo.e h r ^ f y.,X1Xt.~.' E.(.^.E.>.R.t.2X1Xy.R ^ r p t 5.2X`.1 % X   X * p o.Q h <.3.0 E _ ~ ",
"O.h &.A 8 W 0 + 8 j h ; - c = c @XVX$.e.tXC t ..9XgXoX .W 2.3.t.R.3.4.! O.>XgX9X..p Z 9X=.;.ZX#X2 - c - ; h ( @ + 7 W 8 ( &.A o.",
"F D.XX;.g [ 0 0 5.6.> < b.j.G G .XGXoXe.$.a B.uXqXK.n.i  .$X%X>.X.<X%XX.h n.K.yXuXp.N =.;.OXGXD.H V h.b.: > 6.8.0 0 [ j =..XV.S ",
"F n.OXe.8 Y [ E r.=.: z K.eXs.L D.ZXnX*.X *.BXvXb.%.N < V.iX>XA A ,XiXV.1 N %.v.mXmX..X :.mXNXB.L f.eXZ.z : =.r.f [ R 8 ;.XXn.F ",
"..S S ( W 2.).+.@.K.z l x.8XK.L.3 oXJX>X..O.oXr.v.L B H m.yX'.A A .XyXk.D Z L k.p.{...O.,XJX{.3 G.K.5Xl.l v  X@.O.).2.R ( ) S ..",
"~ E ^ ^ >.&X<X:XF.qXC.& J kXjXG.z @.e.oX*.k ..S 2 V L H A.gX,.R f 8.aXm.G L G 2 F K F $.OX$.@.z C.jXkXn & G.yXF.>X:X&X>.R R Q Q ",
"q R T.~ ~ *XBXMXgXgXjXG.4X8Xs.v B D 3 a S a #   o m.V H |.AX7.r r 8.ZXD.V D b.o   # p ..a * H G n s.4X7XL.jXkXhXVXMX*X_ ^ 3.^ 6 ",
"U ,./.E.+Xv.tXDXSXDXgXCXG & P.0Xf.B 3 % $   # ; * 1 X ..oXmX&.C C &.BX{...X 1 * , @ O O O * Z h.eXH.= G CXjXlXSXDX9Xk.'.E./.,.t ",
"E ^.8.&.k.z.C.qXhXSXCXkXG = J Z.#.- % o $ 4 B.'.e.O   k i.B.< V.N.> i.u.i   O 6.^.B.w @ X o : #.Z.J = L jXjXSXhXwXG.l.g.&.,.^.( ",
"e ) v.g.j.I.0X7XhXFXgXyXJ.= & z 2 X o ; O., $.>X1Xo.. i  .w.:..X|.r.*.j i   &.=X>Xo., ..> o X 2 z % l K.pXgXFXdX7X0XP.f.-.M.` w ",
"e N h.S.5X8XG. XZXZXOXv. X=.4 3 X X e e '.D.> e [.^.  j *.r.MXmXMXmXr.O.k   B.[.1 > B.v.2 2 o X < N =. Xv.OXZXZXJ.G.eX5Xl.g.N h ",
"m D d.P.j.%.=.V.nXBX`.i o.i.O.i X 2 h.h.f.9XD.a w A   , 6.a r.=X>Xr.a *., O C w a B.J.#.h.j.2 O w 5.B...i `.nXmXn.=.d.l.P.a.H e ",
"1 m J f.V v.'.o.$XxX$Xt.h 8 + j > c Z.aXf.L @.|.*.a @   1 $...'.'...$.< X O h 6.'.@.L l.rXS.c > h 6 8 j t.;XxX$X+.|.g.H a.J z e ",
"w e N Z ) ( t.X.2.~.R.2.y + s y.N = J Z.H.CXl B -.; X   , >XGX>X@XFXOX, X O 1 -.B v CXK.Z.J & N M.r + g <.W.~.<.[ t.S D D m a w ",
"8 h a D M.[.1.0.<.u 9 u 0 8 X.y.=.n l l kXG.f.C.H m X ; > =.b.V V k.%.2 ; X 2 H A.j.K.zX= = n g.y._ 8 0 9 y y >.0.1.[.e.D C h 0 ",
"U E H g.(.1XW !.Q.W y u 7 X.7. .n.K.G d.K.l L. X=.% X > -.A.n H.Z.J K.g.; X * k.XXK.v K.f.G K.m. .0.[ 8 s s Q E.!.~ 1X'.#.H E R ",
"R ( 6.B a r.Q.].(  .i u 0 R.<X{..XgXgXCXd.& v c < * o < h.0XP.Y.U.H.5Xh.<   O < c b = s.CXjXgX.X`.-X9.8 s f ....[.Q.y.p N 6.Q R ",
"E ~ _ 5.O.O.+Xn.*.*.j Q R 4.<XnXZXDXDXjXqXP x & : e 1 : = H G Z.S.G L = * 2 a < & x a.pXgXjXDXZXnX-X<.d ~ ( *.*.v.oX+.5.5.( ~ E ",
"X.X.u 3.Q.w.,X.Xv...o.1.R 0.*XMXZXDXSXlXgX6Xb.@.*.e ) Z z - & b.l.% z - Z ) w 6.@.k.4XzXDXSXCXZXMX*X0.R 1.+.o.e..XuX1.u.1.y X.X.",
"Q d y <.X.W.cXnX>X`.{.&XW.X.V.m.XXqXgXFXiXe.+.w.X.. o.v.b.l.C.pXpXC.l.b.=.... _ w.+.r.iXFXgX7XXXm.V.X.R.$X].}.>XcXxXW.[ >.y d Q ",
"s W >.>.t.].$X{.`.y.j {.^...A.l.4XL.XXZXnX$X<.W 5 + j ) $.XXhXjXjXgX7X@.) h + 5 W 1.{.nXZXXX4XI.l.K...`.}.Q 9.].{.$X!.R.[ ~ Q s ",
"6 s 0 X.W.9.Q.+.t.i.k B.J.f.P Z.5XC.f.tX1X&Xt.y W W X.u.B.@XVXFXSXVX@Xp.Q.X.d W u t.$X1XtXf.Z.8Xx.a.d. XD.k ).t.X.Q.7.t.~ r 0 8 ",
"0 + 0 4.u.w.9.1.j i.n.J.A.a.l.5XP d. X*.E.1.r 8 Q 7 [ &X2XVXHXdXdXFXMX2X&X~ 8 Q 6 8 7.Q.*. Xd.j.5Xj.f.A.J.p.Q.g 1.w.t.W.>.0 + 8 ",
"9 Y ! | W g X.,.o.6.g.g.N D f.K.%.Z y.7.^ R ( *.*.j d <.:XmX@X4X6X9XuX;X<.g j *.=.( E ~ 7.M.Z g.Z.f.B N g.=.e.o.1.[ g Q | ! Y 9 ",
"9 Y ! ! 0 d [ E &.) 2 Z ; ) V f.V.&.o././ R S OX|...d [ O.r.k.4X4Xg.p.+.[ y &.|.XXS R / ].` &.N.d.Z ) w Z 2 D o.g <.8 0 { T T 9 ",
"Y Y ! y + s Q f ( e ; > 6 w N Z D M.y.7.^ R ( V.v.t >.~ ( D.P I.K.L J.A ~ >.a V.V.S R ! 1.y.6.) D e r 6 > 1 e ` f Q d 5 9 ! ! Y ",
"W R q 5 8 ~ f r p C p w 6 6 e N m ) ` E q W o.D N &.>.R y.OXP x.x.a.6XM.R 4.&.N D o.^ q E ` ) e C t 6 6 w a C t r r ~ 0 + 7 Y ! "
};
