/* XPM */
static char *bac8f6c98d094602d194f9532796b59ehXaLIzcUatJeVuY1[] = {
/* columns rows colors chars-per-pixel */
"64 64 256 2 ",
"   c #05173A",
".  c #12112F",
"X  c #32112B",
"o  c #0F2D33",
"O  c #303135",
"+  c #332D1C",
"@  c #501631",
"#  c #691B33",
"$  c #502F34",
"%  c #712F32",
"&  c #5B1D14",
"*  c #2E5038",
"=  c #306539",
"-  c #265622",
";  c #4D503A",
":  c #6E4E32",
">  c #516931",
",  c #706B34",
"<  c #5E551D",
"1  c #041848",
"2  c #0A174F",
"3  c #07284A",
"4  c #182849",
"5  c #043A4A",
"6  c #082957",
"7  c #093756",
"8  c #173858",
"9  c #153151",
"0  c #272946",
"q  c #2C3553",
"w  c #183869",
"e  c #11356E",
"r  c #283B6D",
"t  c #251B40",
"y  c #4D394C",
"u  c #6F3249",
"i  c #164957",
"p  c #1A5458",
"a  c #13494C",
"s  c #295A48",
"d  c #255957",
"f  c #314A51",
"g  c #2A674A",
"h  c #336C53",
"j  c #1A486A",
"k  c #374769",
"l  c #294777",
"z  c #30516D",
"x  c #36696B",
"c  c #4A4658",
"v  c #584959",
"b  c #51524D",
"n  c #674847",
"m  c #764947",
"M  c #77534B",
"N  c #795759",
"B  c #6B5253",
"V  c #4D734E",
"C  c #6E6F4E",
"Z  c #464B68",
"A  c #575768",
"S  c #575877",
"D  c #4C5170",
"F  c #6D5568",
"G  c #4E6B6B",
"H  c #66687A",
"J  c #796978",
"K  c #71676C",
"L  c #8C3132",
"P  c #9F1D21",
"I  c #CE3132",
"U  c #934B32",
"Y  c #8F762E",
"T  c #935126",
"R  c #8B3B4D",
"E  c #CD3A43",
"W  c #915251",
"Q  c #AE504D",
"!  c #896459",
"~  c #927152",
"^  c #B06B51",
"/  c #8C5866",
"(  c #866567",
")  c #966A69",
"_  c #997469",
"`  c #8F7074",
"'  c #A87B6A",
"]  c #B86B76",
"[  c #A87B77",
"{  c #B36F75",
"}  c #AF5662",
"|  c #D97759",
" . c #D06B57",
".. c #E47453",
"X. c #C97669",
"o. c #C87775",
"O. c #D0726C",
"+. c #D36556",
"@. c #6F8F34",
"#. c #578734",
"$. c #558C51",
"%. c #778949",
"&. c #6D8F54",
"*. c #7AA851",
"=. c #568869",
"-. c #6D946E",
";. c #75A46E",
":. c #8E8D36",
">. c #94A83B",
",. c #A8993B",
"<. c #8E934D",
"1. c #97B94A",
"2. c #91AD54",
"3. c #A5AF51",
"4. c #8A936C",
"5. c #AE8973",
"6. c #91B270",
"7. c #ADB06C",
"8. c #B39854",
"9. c #EC8E5A",
"0. c #D6846B",
"q. c #D88974",
"w. c #CF9176",
"e. c #EA9668",
"r. c #EA946D",
"t. c #CEAC78",
"y. c #F5A868",
"u. c #F2A975",
"i. c #F7BB77",
"p. c #EFAB6F",
"a. c #D98A5C",
"s. c #AAC673",
"d. c #A1C358",
"f. c #F6C57A",
"g. c #EEC77A",
"h. c #1B5499",
"j. c #154A91",
"k. c #255B9A",
"l. c #325689",
"z. c #3A6798",
"x. c #2F6498",
"c. c #1D57A4",
"v. c #245BA6",
"b. c #305FAA",
"n. c #2B66A8",
"m. c #3569A8",
"M. c #2C6AB6",
"N. c #376BB5",
"B. c #3974B9",
"V. c #3774AB",
"C. c #4B5989",
"Z. c #546E93",
"A. c #6F748C",
"S. c #4676AA",
"D. c #4679B9",
"F. c #587ABB",
"G. c #496DAD",
"H. c #7875AB",
"J. c #6D77B1",
"K. c #6E5E85",
"L. c #3473C2",
"P. c #2C74C2",
"I. c #467CC6",
"U. c #567BC4",
"Y. c #697AC3",
"T. c #9A768A",
"R. c #886D99",
"E. c #8F7493",
"W. c #A76C87",
"Q. c #AF7389",
"!. c #8571A7",
"~. c #C07981",
"^. c #77859A",
"/. c #6F8C8D",
"(. c #5285B4",
"). c #7A99A9",
"_. c #6B97B7",
"`. c #708DAE",
"'. c #7AA2B8",
"]. c #639188",
"[. c #4883C6",
"{. c #558AC6",
"}. c #5992CF",
"|. c #6498C7",
" X c #6B96D0",
".X c #78A8D8",
"XX c #73A6CE",
"oX c #75A9E2",
"OX c #8E8D91",
"+X c #B58A85",
"@X c #B0908D",
"#X c #99B897",
"$X c #91B08A",
"%X c #B1B094",
"&X c #8998AD",
"*X c #87A7B8",
"=X c #99B5BA",
"-X c #93A9AD",
";X c #ACB5B1",
":X c #B09BA5",
">X c #CB948C",
",X c #D2AD91",
"<X c #E8B993",
"1X c #CEAFAD",
"2X c #E9AEA8",
"3X c #ADC994",
"4X c #B4CBB0",
"5X c #9FC18F",
"6X c #FAC886",
"7X c #FBDA99",
"8X c #F3CC94",
"9X c #CFCBB1",
"0X c #FADAA6",
"qX c #EDCCAA",
"wX c #FFE3A7",
"eX c #FFE6B3",
"rX c #E3D196",
"tX c #84AAC8",
"yX c #98B6C7",
"uX c #96B9D5",
"iX c #8BB2D0",
"pX c #A6BAC9",
"aX c #ADBDD2",
"sX c #8EB9E9",
"dX c #95AFD5",
"fX c #9BC2D7",
"gX c #AAC4CA",
"hX c #B5CAC9",
"jX c #B8D4CA",
"kX c #A8C7D6",
"lX c #B6CBD6",
"zX c #B7D5DB",
"xX c #ADD5D8",
"cX c #94C5EB",
"vX c #A6C7E6",
"bX c #B8D8E8",
"nX c #A9D6F8",
"mX c #B1D5F1",
"MX c #B9E3FA",
"NX c #C8D8C9",
"BX c #CCD6D5",
"VX c #CDE2D7",
"CX c #D7E8D9",
"ZX c #D4E5CD",
"AX c #E9EBD5",
"SX c #C6DAE8",
"DX c #CADFF0",
"FX c #C9E5E7",
"GX c #D7EAE7",
"HX c #DCF2EB",
"JX c #C9E8F9",
"KX c #D8EBF7",
"LX c #D8F4FB",
"PX c #C9F1FF",
"IX c #E9F5EE",
"UX c #E8DBE2",
/* pixels */
"L.B.G.G.B.L.L.B.P.P.L.B.L.L.L.L.N.D.G.G.G.N.M.M.P.P.P.P.B.N.G.D.M.h.B.n.M.j.B.B.c.M.M.M.h.M.k.k.h.v.v.B.j.N.v.j.h.j.c.j.j.c.v.j.",
"I.U.J.J.F.U.I.I.I.I.[.I.I.I.I.I.I.U.Y.F.F.U.D.[.I.I.[.[.[.U.F.U.L.M.B.n.N.n.N.n.M.M.L.}.h.B.D.m.v.n.h.[.L.N.N.N.B.c.v.v.h.v.v.c.",
"{.Y.H.H.H.J.J.Y.F.U.U.U.F.F.F.F.{.{.J.H.H.J.J.F.F.U.J.F.F.`.H.H.G.n.D.S.z.z.D.N.M.B.n.n.m.n.n.V.B.I.n.[.M.M.I.I.I.v.N.B.h.v.v.h.",
"H.H.R.R.R.R.!.H.H.H.J.J.J.J.J.J.J.J.H.R.R.!.H.H.H.!.!.R.H.H.R.A.G.m.G. XsXsX[.I.(.V.k.m.(.oXcX.XD.N.n.[.B.n.n.n.N.b.n.n.I.}.L.M.",
"T.T.T.T.Q.W.T.T.T.T.E.R.R.E.E.E.R.R.R.R.E.E.!.!.T.W.W.W.{ { W.R.Z.{.D.D.(.nXsXXXD.m.}.x..XnX.XS.XXD.m.m.{.m.k.B.B.B.v.c.[.}.B.n.",
"] { W.W.{ ] W.W.Q.Q.W.W.T.T.W.{ W.W.T.T.W.T.E.E.Q.W.Q.] ] ] ] T.*X{.}.}.m.S.(.(..X}.}.(.XXS.Z.MXcXoX.X.X(.S.S.B.n.B.B.B.n.c.n.B.",
"O.o.Q.Q.Q.Q.Q.] ] ] ] { Q.Q.o.o.] Q.Q.Q.Q.T.T.Q.Q.Q.Q.Q.] ] ] T.)._.|.(.|..X.X.X XXX}.(.m.S.mXuXXX|.(.Z.z.S.z.x.V.B.M.M.I.N.n.m.",
"O.O.] { ] o.o.o.o.o.o.] { { X.O.O.O.O.] Q.W.[ Q.Q.Q.Q.Q.] ] ~.Q.aXnXnXcX.X|.(.XXXXXX}.{. X.X'.uX_.Z.uXMXmXnXnXXXV.n.N.v.D.m.n.h.",
"O.O.O.X.X. .X.O.o.X.X. .X.O. . . . .+.| O.O.X.] o.o.O.X.o.o.X.+X*X(.`.cXnXcX.X(.vXuXiXXXsX.XtXuX&XSXLXJXdXmXJXMXnXV.n.D.I.I.v.N.",
"o.o.O.O.| | O.O.o.o.| | | | | | | | ......| O.O.o.O.| | X.{ X.5.^.sXMXvX_.XXMX'.MXfXtXtX`.uXkXaXLXSXpXgXA.&XyX'.XXXXb.B.D.I.n.B.",
"w.q.O.O.0.0.O.O.o.O.| | ....| 0.| | ....| O.q.q.>X>X0.0.w.>X>X:XaXfXtX'.tXiXPX*XkXLXxXxXbXlXSXKXkXkXkXyX*X*X'.iX|.|.[.B.N.m.B.B.",
"q.q.q.q.q.0.q.q.q.q.9.9.9.9.a.0.a.9.9.9.| 0.0.0.w.>Xq.q.q.>X>X@X-XyXmXJXPXbXJXgX).kXLXzX=XSXgX-X*X).-XhXIXGXtXS.(.{.m.m.D.B.B.B.",
"e.e.r.r.q.q.r.r.r.r.e.9.9.9.9.e.e.e.e.e.e.e.e.r.r.r.q.q.r.r.r.>XZXLXFXfXyXlXHXGX=X&X*X*XhXLX=XtX*X).HXAXAXAXFX_.m.}.}.k.D.D.b.v.",
"e.e.r.r.r.r.r.r.e.e.e.e.9.9.e.e.y.e.r.e.e.9.e.e.e.r.r.r.r.9.e.<XAX;X-XlXjX=X-XHXFXFXSXKXLX*X).uX`.vXHXIXAXHXFXsXD.v.N.(.G.N.}.v.",
"y.e.p.u.u.u.u.p.u.u.p.y.y.y.e.e.u.u.y.y.y.y.p.p.u.p.y.y.y.y.y.<X;X=XIXIXVXHXgX-XLXFXzXkXyXtXvXiXz..X`.Z.zX`.l.D.v.n.D.m.D.B.{.n.",
"y.y.p.p.p.p.u.p.p.p.p.p.y.y.u.u.u.u.y.y.y.p.u.p.p.i.p.y.y.y.y.t.#XGXCXNXNXVXFX*XFXhXhXkXkXfX_.l.z._.z.w vXl.w j.h.h.n.D.N.B.D.n.",
"i.i.i.i.i.i.i.i.i.i.i.i.p.i.i.i.i.i.i.f.i.6Xi.i.f.f.f.i.f.i.i.<X9XGXVXNXhXNXHX=XVXCXlX^.*X_.F.w Z.LXaXyXJXZ.`.iXoXh.e j.|.{.B.B.",
"f.f.6X6X6Xf.8X6X6Xf.f.i.6X6Xf.f.6X6X6X6X6X6Xf.f.g.g.g.f.f.g.8X<X9XFXVXGXNXHXVX;XCXVX/.kXuX(.l.l z KXIXGXJX`.uXPXoXh.e j.sXoXn.[.",
"0X7X8X7X7X7X0Xt.8X7X7X7X8X8X7X7X0X0X8X<X7X7X8X7X6X7X7X6X6X8XwXqX4XHXBXGXGXCXjXjXHX-X^.MXuX`.l.l.r vXGXjXtXS..XsX}.j.j (.oXD.m.m.",
"t.t.,X8XqX0XqXt.8XwX7X0X,X<XeX0XrXqXqX5.8X7XwX7XwX8X7XwX7XwX0X9X;X=XGXNXNXNXjXGXFXk Z.'._.cXm.h.r tXFXFXXXV. X X[.e Z.JX{.j.v.n.",
"' 5.5.5.w.w.,Xw.>X<X<X,X,X,XqX,X<X,XqX5.0X7X7XwX7X0XwXwX0X0X5.5.A G AXAXUXCXVXFXxXx _.vXLXmXS.j.e `.bXgX_.z.{. Xk.x.MXvXS.}.}.D.",
"_ _ [ ' [ [ ' ' ' ' 5.5.>X>X+X,X<X>X1X@XqX,X<XeXeX0X7X0XeXqX' _ c H AXAXAXUXVXFXzX`.z XXmXtXz.j.j.l vXPXMXcXoXB.z.nXmXXXS.D.{.{.",
") +X( [ ) ! ' ! +X_ ' _ _ _ ! +X5.>X1X+X,X@X,XqXeX0X7X7X7XeXqX:XS =XIXAXAXZXCXCXLX*Xl  XsXS.sXXXe 1 l.iXcX.XB.h.nXMXiXx.m.k.{.k.",
"( N ( [ ! +X! ! [ ! ! ! ` _ _ ! 5.+X[ ` @X,X,X,XrX0XwXwX7X<X9XUX^.f ;XIXZXAXZXVXGX^.l.j.l Z.vX`.`.`.z.x.V.x.k.k.fX'.x.B.oXD.m.[.",
"/ ` ` M M 5.` m >X[ [ N ) ` +X! >X` J T.,X<X,X<XqX<X8XwX7X8.W ` r 1 4 &XAXAXZXCXGXpXl.w z *XgXJXLXLXcXx.V.|._.bXFX).z.D.cXoXk.}.",
"B ` @X$ ! [ [ N 5.' @Xn m ! _ m _ ( J J 1X>X5._ @X,X0X0Xa.w.U m K.l r 8 GXCXCXVXGXFXvXZ.`.LXFX=X&XbXnXS.j nXLXkXlXkXl.}.oXV.V.B.",
"B N ` n 5.M K B _ M ` B [ _ +XM N J A H T.1X_ :X;X;X9XrXU W W @XOXl.l.1 ^.KXFXjXGX=XMXmXzXbX&X^.=XbXMXz.*XLXfX`.bXuX{.oXD.k.D.{.",
"K ` J K :X$ J v +XM E.K +X! ( ( M F A A K @X` OX;X-X,X,X{ W { F K.C.r 3 9 yX*XpXLXhX).bXbX).lXKXKXDXtXZ.SXyXiXsXnX.X}.{.(.D.|..X",
"` K J y @X$ c y ` n F v / m ) >X,X/ A Z H OX` %X9XrX8Xw.} { u y A.k r Z.l z yXLXHXHXjX=X).yXVX;XJ H A.yXkXkXcXsX|.S.(.}.|._.iXvX",
"J y A E.T.$ c OX1XF y OX:X! M 1XW W F c H A.K %X3XrXt.^ u X X F S C.&XJ.l j mXkX;XVXCXVXzXlX%X; $ A BXFXFXfXXX_.tX_. X|.XXmXmXuX",
"H q OXOX-XA A.H J H Z F K K ; M % W M T.K.A.H ;X%Xt.t.~ y . @ F q D Z q w j bXFX&XgXAX9XAXAX@X% ) ( NXzXzX&X).lX;X` `.uXyXbXMXfX",
"OXZ K b A c F v c A c A v n ! >X} & / ` S S G &.4.7.8.~ O . v y q S q 6 e w JX=X*XVX%X@X%X5.5.Q.` 1XCXNXhXaXSX;Xm m ^.mXSXDXuXtX",
"D q E.B B 1X,X% B OXD q b ,X<Xa.Q L u u Z A.4.4.2.7.t.~ O y v O Z C.l 6 6 l.vX).NXZXK $ $ y y v S SX1XN J :X:X@X5.( ;XJXkX'._.cX",
"k q OXN M >XW & $ ;XJ O ! qX^ ^ ^ W # $ B C %.2.3.7.7.~ $ F $ v k l.r 6 1  XuXgXGX%XN N v X y y 1 yX@X$ $ $ $ N OX;XBXpX).'.nXcX",
"k 0 OX_ : ~ % % _ %XK y 5.] & W R # # m 5.3.7.3.7.8.7.~ % u n v C.l.l 6 1 S.kXFXgX;Xn ) ` y y q 1 -X5.' 1Xy y F O ^.SX-X^.yXuXvX",
"q S @X>X<X0X>XW >X+X` ( 2XQ # R @ @ / U w.8.:.2.<., 5.~ m m M v l.l.6 1 6 _.mX=XgX;XB @X[ n q 4   H.` M +Xv v y 1 8 &XD A.pXyXxX",
"q E.,Xw.u.<X^ X.W ! n +X) % R W u W q.T ..T + 4.: : 5.~ : / m F C.l.3   w sXuXyXKX;X5.,X) n q   1 r 0 A K F Z 2 8 3 4 S gXyXkXzX",
"4 OX_ : a.| L # ) +X) >X% W } # u >Xq. .P & < 4.! : 8.~ U ! / y Z.l.1 1 z vXmXJXlXNX1X+XW y . k k 6 Z.pXE.v q q vX`.^.DXPXbXbXDX",
"0 E.K m Q  .R @ F A B m W 2X>X% @ W ^  ...P T ^ ^ % 8.<.T 5.N c J.6 6   S KXzXzXgX;X@Xm m $ . `.vXyXkXhXOXy . ).IXGXSXkXvXvXvXdX",
"O A.v @ U  .W @ t D y ( m ,X>X% @ / Q +.+.+. .U & : 8.Y ^ ' $ R.l 1 6 1 `.KXaX-XH OXOXB ` F 0 Z.bXkXhXOXA c   ).IXGXGXzXuX*XtXsX",
"f A A.N 0.q.W X 4 k . X & w.0.W u u Q +.P P % & < :.<.Y ~ m ` S 2 2 1 6 tXMXH v v K A.0 y S D 0 lXIXAXA q k r 9 zXHXGXFXHXGXzXkX",
"f -.OXF ^ q.} @ 0 z ).OX>XX.^ Q u # Q P P P @ B %.@.%.~ ! ) F . 2 2 1 r `.A.K.:XOXOXC.4 q A Z o A IX9XA 4 r l   A.jX&XjXZXZXjXFX",
"; OXk . W Q W $ . z Z.E.2XU % } Q } u & I P @ @X6.2.C b B b .   4     ^.pX=XS D A A.r 9 aXBXD 0 K BXA.q Z lX`.4 k hXjXHXCXNXhXhX",
"&.-.k . Q.L W u q 8 O J [ # $ / L & @ u E I # 1X7.%.C ; ; O O f 0 0 &XlXOX^.C.2   4 3 ).KX;XA O H H 4 x BXIXSXk k LXHXZXCXIXGXVX",
"*.&.O J T.@ / u r q K ,X$ y y OX) % [ o.E E # 1X%X2.%.%.%.> V V b -XaXZ   k l.r 3 3 ).KXBXA.k q S q A.FXGXBXBXS 4 yXHXNXNXVXCXIX",
"2., + @Xv X ) B 0 4 @XW v D   A +X% q.+.E I # 1X9X9X3X3X6.$X;.4.$X-Xq 4 3 8 w l 1 Z.MXSX-Xc 4 8 D yXLXGXVXVXIX-X9 Z.GXGXFXVXNXAX",
"1.>.4.C . O n N . 0 Q.@ q k . ` Q.L +.P I E # J OX4X;XOX/.&XOXOX;XA 4 C.C.6 2 2 6 Z.(.`.S A q w _.PXMXJXGXGXGXSXz 3 x yXpXlXVXCX",
"1.2.<.< * ; : ! O F ( X 4 8 . F } U Q P P Q # F A.OXA.k Z.D A.A &XZ C.8 w w 6 1 l z.l.w A.!.k l.l.(._.*X=XgXlXlXkXyXkXkXbXGXCXZX",
"<.2.<.2.<.<.<.:.C ( O O 9 5 o b W Q L & & R % u J OX^.Z C.Z.H.S C.C.D S /.z 6 2 2 6 6 r A.^.k Z.uXtX'.tXyX=XhXVXCXHXGXHXGXGXCXZX",
"&.&.<.>.3.3.>.3.,.< > = * * * B W Q # @ $ $ % # y c H Z D C.G 9 9 q   ^.lXZ.1 6 w w 2 Z.Z.k S Z.yXvXJXLXLXKXFXCXCXZXZXZXCXVXNXNX",
"V V <.:.<.<.<.>.3.3.2.2.*.%.%.<.^ U % $ b * $ $ $ $ b * * - * * * f ).&Xz 1   1 6 r r l l.7 _.mXxXxXjXhXhXCXHXCXZXZXZX4XNX4X4X4X",
"V V , ~ <.> %.<.Y :.>.>.>.3.>.:.T U % $ ; V C C n $ ; C ;.$.$.=.-././.q     o     3 z x 3 3 a d G /.$X#XNXZXNXNXNX9X4X4X4X;X#X#X",
"G -.b C : , OX=., Y Y :.,.,.>.1.8.^ % ! ;.;.;.;.4.C $ B -.;.;.=.V s o o o a * s s * * * * h V &.-.$X3X4X4XNX4X4X;X;XOX#X$X$X#X6.",
"* b A b ; b d ].C : Y Y T Y >.>.,.Y & + < - - - - > + + - - - #.V = V $.V $.$.&.&.;.&.;.;.6.6.5X3X3X4X#X#X#X4.#XjX;X-./.$X3X5X6.",
"; B b O * G ].G $ : , , , , ,.,.:.< > > , < , #.#.#.@.@.@.@.@.*.2.2.6.2.d.d.2.2.6.2.6.s.5X3X3X3X4X3X4X#X;.-.$X#X$X-XOX#X$X-.=.-.",
"K b $ b G f G G b ! n C 4.C , Y 3.2.2.2.C , 2.2.2.1.1.1.1.1.1.d.1.1.1.1.1.1.d.s.s.s.s.6.s.6.$X;.$X3X4X4X#X;.#X;././.-.-.;.$.h V ",
"G f * A b b G f B ! B ; ; C : : , <.%.%.&.C <.<.2.2.1.2.@.<.1.>.1.1.1.d.d.7.s.7.s.3X3X$X$X$X$X;.;.$X#X#X3X$XV -.=.].x x =.h * g ",
"].G f b b A f f n $ O f * * $ n 4., > $.V = V C , <.<.2.C %.2.>.1.1.1.1.2.6.2.6.3X-.6.6.#X4X6.;.-.-./.=.-.-.=.=.x x x x g h V s ",
"Z.x d 9 f f 8 f b O * V V * o b 4.; - * ;.$XV V = &.&.&.&.> @.2.2.2.*.*.*.;.&.&./.-.-./.-.-.;.-.-.=.=.G -.V h =.x x d p h d p p ",
"3 7 z a a a z i A.G s h s * a a * b h s V =.h h s = V V > > V > $.$.$.$.$.$.-.=.-.=.V =.=.V -.=.=.s G h g g h g d p d p d i i i ",
"d i p x p p i d a 5 p a s G p x o s d x s a p d d s h = s s * h V $.h = $.$.= h h h h h h g h h h g x p a d d p p a z i a i j 7 ",
"p a a 5 i 5 i 5 5 i i i a f d a d d 9 i p p i p d x d s d p a d h g g g g h h h g g g g g g p a h d a p d p a a j i i 7 i 7 7 7 ",
"7 i 7 8 j 8 7 7 7 j 8 8 8 8 8 7 8 j 8 j i i p 5 5 p i i i p p i d d a p p a p a p p p p p p a p i p i i i i i i 7 j j 7 7 7 7 7 ",
"3 7 6 6 6 3 7 6 6 6 8 9 3 7 6 7 6 6 7 6 5 5 3 5 5 5 3 7 5 5 7 7 5 5 a i a 5 5 a a a a 5 5 7 7 7 5 5 7 5 3 7 5 7 5 7 7 7 7 6 6 6 "
};
