/* XPM */
static char *_03f291a1fbc4294cfae6b3cdc3953d4SUOYRfJWg06RWKk6[] = {
/* columns rows colors chars-per-pixel */
"64 64 236 2 ",
"   c #0A0708",
".  c #160906",
"X  c #19130D",
"o  c #080D13",
"O  c #0D1218",
"+  c #181919",
"@  c #2B0502",
"#  c #370002",
"$  c #29140B",
"%  c #241A14",
"&  c #231E1B",
"*  c #2B1B14",
"=  c #361B14",
"-  c #36150C",
";  c #1D211D",
":  c #25221D",
">  c #2B251C",
",  c #38241A",
"<  c #171C23",
"1  c #231D24",
"2  c #1D2625",
"3  c #1D342B",
"4  c #1E2931",
"5  c #242424",
"6  c #2A2523",
"7  c #242B25",
"8  c #242A2A",
"9  c #2C2C2C",
"0  c #2A2828",
"q  c #352C27",
"w  c #24332C",
"e  c #25352A",
"r  c #38332C",
"t  c #262D32",
"y  c #2B3835",
"u  c #343433",
"i  c #3B3B3B",
"p  c #3A3836",
"a  c #470C0C",
"s  c #4D1515",
"d  c #521816",
"f  c #681810",
"g  c #47271B",
"h  c #54291B",
"j  c #6C2A1B",
"k  c #462D23",
"l  c #48342A",
"z  c #57372A",
"x  c #473934",
"c  c #553C33",
"v  c #5D2A2D",
"b  c #67392B",
"n  c #783528",
"m  c #653B36",
"M  c #793B33",
"N  c #712D28",
"B  c #34443C",
"V  c #45413B",
"C  c #584538",
"Z  c #674839",
"A  c #764738",
"S  c #734C38",
"D  c #363D46",
"F  c #2C3844",
"G  c #3B434D",
"H  c #3B4545",
"J  c #3B4854",
"K  c #2E424C",
"L  c #3D5061",
"P  c #434543",
"I  c #474A49",
"U  c #594944",
"Y  c #45524D",
"T  c #444B56",
"R  c #4D5553",
"E  c #545756",
"W  c #5B5249",
"Q  c #784D42",
"!  c #6B5345",
"~  c #775648",
"^  c #795D53",
"/  c #67544E",
"(  c #57625C",
")  c #756259",
"_  c #5A6663",
"`  c #666968",
"'  c #757B7B",
"]  c #72726E",
"[  c #8C372D",
"{  c #FD140F",
"}  c #F71516",
"|  c #FA1415",
" . c #F6151A",
".. c #FA1419",
"X. c #F31815",
"o. c #DA231E",
"O. c #D7241F",
"+. c #CF2727",
"@. c #CE2629",
"#. c #C82A2A",
"$. c #D32523",
"%. c #DA2221",
"&. c #D0252A",
"*. c #84463B",
"=. c #8D4E3C",
"-. c #A8473D",
";. c #874A42",
":. c #944845",
">. c #875848",
",. c #94594A",
"<. c #945E52",
"1. c #855C52",
"2. c #A65348",
"3. c #AD5850",
"4. c #97634D",
"5. c #886657",
"6. c #9D6D5C",
"7. c #976756",
"8. c #9C735C",
"9. c #8D6049",
"0. c #A56A58",
"q. c #A5725D",
"w. c #B36355",
"e. c #886D64",
"r. c #8C7469",
"t. c #997668",
"y. c #997B73",
"u. c #917069",
"i. c #A87867",
"p. c #B47B68",
"a. c #A67B74",
"s. c #B77D71",
"d. c #A76D67",
"f. c #CC7769",
"g. c #C46859",
"h. c #75817D",
"j. c #908479",
"k. c #AA826D",
"l. c #B3836D",
"z. c #BA846F",
"x. c #A98678",
"c. c #B58473",
"v. c #BC8472",
"b. c #BB8B74",
"n. c #BB8C7C",
"m. c #B58978",
"M. c #BC927E",
"N. c #C38C7B",
"B. c #C38A77",
"V. c #C4927C",
"C. c #CB927E",
"Z. c #D78270",
"A. c #E9907E",
"S. c #7B7F80",
"D. c #7D8784",
"F. c #7F908A",
"G. c #848B8B",
"H. c #858888",
"J. c #8C9392",
"K. c #8D9796",
"L. c #93969B",
"P. c #959B9D",
"I. c #999C9E",
"U. c #909696",
"Y. c #91918D",
"T. c #A98B81",
"R. c #BA8885",
"E. c #BA9787",
"W. c #AC978D",
"Q. c #A9A49D",
"!. c #BBA497",
"~. c #BBA28E",
"^. c #969EA1",
"/. c #999DA1",
"(. c #9BA2A4",
"). c #9EA7A9",
"_. c #A4A8A8",
"`. c #B7B2AD",
"'. c #C58C86",
"]. c #CB9583",
"[. c #CC9A85",
"{. c #CC9D8A",
"}. c #C69887",
"|. c #D49D8B",
" X c #D49988",
".X c #D69E92",
"XX c #D6A28D",
"oX c #DAA28E",
"OX c #C9A596",
"+X c #D5A492",
"@X c #DCA593",
"#X c #DDAA96",
"$X c #DDAC9A",
"%X c #D8A898",
"&X c #DEB19B",
"*X c #CBA08F",
"=X c #E3AD9B",
"-X c #E3A997",
";X c #E2B39D",
":X c #E8B09F",
">X c #FDA694",
",X c #DAB7A6",
"<X c #CDB1A7",
"1X c #E5B5A2",
"2X c #EBB4A3",
"3X c #E6B9A3",
"4X c #EABAA5",
"5X c #ECBCAB",
"6X c #E6BAA9",
"7X c #F2BCAA",
"8X c #F1B9A6",
"9X c #E9B4AA",
"0X c #F99C8B",
"qX c #D5C3B9",
"wX c #EDC0AC",
"eX c #F2C2AE",
"rX c #EDC3B2",
"tX c #F2C3B1",
"yX c #FCC7B3",
"uX c #D8D3CC",
"iX c #DDDAD5",
"pX c #CECAC5",
"aX c #E3DDD4",
"sX c #E3DDDA",
"dX c #E5DBD3",
"fX c #FFD3D2",
"gX c #F0D5CA",
"hX c #E6E2DD",
"jX c #E9E4DD",
"kX c #E5E2D6",
"lX c #F2E5DA",
"zX c #E6E4E1",
"xX c #E9E4E1",
"cX c #EEECE6",
"vX c #F3EDE8",
"bX c #F9F2EB",
/* pixels */
"} } | | | | | | | } } } } } | | } } } } } } | | } } } } } } } } | | | | | | | | | | | | | | } } } } | | | | | | | | } } } } | | ",
"} } | | | | | | | } } } } } | | } } } } } | | | | } | } | } } } | | | | | | | | | | | | | } } } } } | | | | | | | | } } } } | | ",
"} } | | | | | | | } } } } } | | | | | | | | | | | | | | | | | } | | | | | | | | | | | } } } } } } } | | | | | | | | } } | | | | ",
"} } | | | | | | } } } } } | | | | | ..| ..| ..| ..| ..| ..| ..| | } | | | | | | | | | } } } } } } | | | | | | | | | } } | | | | ",
"} } | | | | | |  .} } } | | | | | } | | | | | | | | | | | | | | | | | | | | | | | | | } } } } } | | | | | | | | | ........| | | ",
"} } | | | | .. . .} } } | | | | | } | | | | | | | | | | | | | | | | | | | | | | | | | | | } } | | | | | | | ..| | | | | | | | | ",
"} } } } } } } } } } } } | | | | | } } | | | | | | | | | | | | | | | | | | | | | | | | | | | | | | | | | | | | } | | | | | | | | ",
"+.+.+.&.&.&.&.@.+.+.+.+.$.$.$.$.$.$.$.$.$.$.$.O.%.%.$.$.%.%.$.$.o.o.o.o.o.o.o.o.o.o.o.o.o.O.o.O.O.O.$.$.&.&.&.&.&.&.&.$.$.&.&.&.",
"'.'.'.'.R.R.R.R.R.a.d.d.;.d d ;.M *.=.[ j N n n [ [ [ =.[ N n [ -.2.2.3.f.f.w.f.-.g.0X>X0XA.w.[ N f M s.fXfXfXfXfXfXfXfXfXfXfXfX",
"/.I.I.I.L.L.L.L./.S.H.Y.P r I / C C C Z C Z Z S Z Z ~ Z C Z g Z 5.i.b.M.[.l.6.b.b.V.&X3X3X&XM.6.Z k C / pXcXzXzXzXjXjXjXzXzXzXzX",
"I.I.P.P.P.L.L.L./.D.' ] 0 p U W c C Z Q >.Q 9.7.>.>.7.7.Q S h Z k.b.{.%X3X@X}.#X;X#X;X3X3X4X&X}.r.l c W Y.cXzXhXhXjXjXjXjXjXzXzX",
"/.I.P.P.P.L.L.P.P.H.` R r U x x g b >.>.i.7.i.i.i.6.6.m.i.Q b b }.XX;X3XeXeX3XwX5X3X;X;X;X;X3X&XE.! C C ] cXzXhXjXjXjXjXjXjXzXzX",
"/.P.P.L.L.L.P.P.(.H.` P p U r , h S i.7.l.l.z.p.p.p.b.V.n.7.A 6.&X4XtXtXeXeX5X3X3X3X;X1X;X&X3X&X%Xk.! l ] hXzXhXjXjXjXjXjXjXzXzX",
"/.P.L.L.L.P.P.P.(.H.E u r p > = z 9.i.6.p.].V.B.b.C.;XXX{.}.V.&X5X5XwXeXeXwX5X;X;X;X$X;X;X&X;X&X&XE.! l ) uXcXhXjXjXjXjXjXzXzXzX",
"P.P.P.P.P.P.P.^.P.J.R 9 x r % * Z 8.c.b.{.;X;X3X3X3X3X3X1X6XrX6X5X3X5X5X1X;X3X3X;X;X#X&X;X&X;X&X3XOX~ C W qXcXhXjXjXjXjXjXzXzXzX",
"P.P.P.P.P.P.P.^.).J.P 6 p r $ $ Z i.}.+X3X3X;X3X5XwX;X3X4X3X1X3X6X6X6X6X1X1X6X;X;X;X;X;X&X&X;X;X3X,Xu.l U `.cXhXjXjXjXjXhXzXzXzX",
"^.P.P.P.P.P.^.^.(.J.R r > * $ = 9.b.+X+X#X;X1X1X1X3X3X;X;X;X;X;X1X;X;X;X1X5X5X4X4X;X;X;X&X;X;X&X;XwXx.l U Q.cXxXjXjXjXjXzXzXzXzX",
"^.P.P.P.P.P.^.P.(.J.E 0 % * $ z k.{.XXXX#X-X=X;X&X;X;X&X;X&X$X;X1X3X4X4X5X5X5X4X3X;X;X;X&X&X;X;X3X,X~.l r Q.vXxXjXjXjXhXzXzXzXxX",
"^.P.P.^././.^.(.(.G.P X X , , 5.}.{.[.[.XXXX@X#X%X#X&X;X1X1X1X1X4X4X5XeX5X5X4X1X3X;X;X;X;X&X;X;X&X,X<XC q Y.bXzXxXxXjXhXzXzXzXzX",
"(./.^.P.P.P.^.(.(.G.H + > q z u.M.V.N.V.[.[.|.@X+X#X;X6X5X5X5X5XeXtXtXtXeX5X4X4X3X;X;X;X;X;X3X3X1X6X,XC > j.bXhXxXxXjXjXzXzXzXzX",
"I.P.I././.^.(.(.(.H.u X * , Z a.m.V.V.V.[.[.|.@X$X&X1X5X5X5X5X5XtXrXrXrXtXeX5X4X4X1X;X3X3X3X;X&X&X,XrXr.* j.vXzXxXxXzXzXzXzXjXhX",
"_._._._.(./.^.^.(.H.u X * , ! a.k.b.V.V.C.].|.@X=X1X1X5X5X5X5X5XrX5X5XtXeX5X4X1X1X1X3X3X;X+X}.c.i.k.~.~., ] vXxXzXzXzXzXhXhXhXhX",
"H.G.J.L.I.(.(._._.Y.P % * , ! x.k.b.b.B.N.C.|.@X$X=X1X1X5X5X5X5XtXtXeX7X5X4X1X1X&X&X#X*XE.k.5.Q Z Z ! W.C ) bXhXzXzXzXzXhXhXhXhX",
"I I R R E E _ ` ] ] P & % $ c x.k.z.b.B.V.C.|.|.$X=X1X;X1X5X5X5X5X5X2X1X;X$X$X&X%XOXE.k.5.~ S z Z ~ 5.W.e.r.bXhXzXzXzXxXhXjXhXhX",
"R I I P P I I H I R P : * * g t.k.z.b.b.V.[.|.oX@X+X$X=X1X5X1X1X1X1X;X#X@X+X+X*Xx.x.^ Z c z z ~ 5.t.y.!.T.W.bXhXzXzXzXhXhXhXhXhX",
"R R E E R R R E R R E : % * = 5.i.k.b.V.C.].[.+X+X+X+X+X+X%X$X$X=X=X=X#X|.V.l.i.1.! l , l ! e.e.u.t.E.<X!.<XvXhXzXzXzXhXhXhXhXhX",
"I I P P I Y R Y R R R u X q * c t.i.b.}.{.+X+X+X+X%X%X+X{.{.+X@X@XXX|.XX Xv.6.>.S z k c U U l c S ~ m.OX<XqXlXhXzXhXzXhXhXhXhXkX",
"H P P P P P I H H Y R P + 6 > $ 5.i.m.{.%X&X%XOX{.*X}.}.n.n.{.|. X[.].C.B.q.>.A S ! l = $ $ r.y.~ >.m.OX,XgXlXkXhXhXzXhXsXsXhXkX",
"G.D.D.H.H.D.D.D.D.G.' I + X q > Z a.M.}.}.E.x.y.5.5.5.5.7.6.c.N.V.].C.B.p.4.>.>.~ z = $ , c x.<Xx.m.}.%X,XgXlXkXhXhXsXsXsXsXaXkX",
"h.G.P.P.P.I.I.^.(.).G.D ; O + % k x.x.u.5.! Z c k k z z Z Q 7.i.s.v.B.v.p.0.,.>.z m Q = - k x.OXm.E.{.$X,XqXgXaXsXsXsXsXsXdXaXaX",
"y E D.K.J.J.U.K.K.P.' 8 O + + : $ y.~ z l k k , , = , k z m A >.6.i.z.C.C.p.4.A b m y.5.m t.}.M.c.}.%X1X,X,XgXaXaXiXsXsXsXaXaXaX",
"3 w Y h.K.K.J.L.K.K.' 8 O ; 9 & . ) k = z c c C c k k g g z b A >.q.C.@X-XC.0.=.A >.i.m.R.m.i.6.n.*X1X1X1X,XgXkXiXiXsXsXsXaXaXaX",
"3 3 w R F.K.J.K.J.K.] 8 + 7 y p . U z g m Z ! l 6 $ $ @ s g h b ;.p.@XeX8X@Xz.0.q.0.4.4.<.>.7.i.}.$X1X5X$X,X!.dXhXiXiXiXiXsXdXdX",
"3 3 3 H ' K.K.Y.G.Y.` 8 + 8 y H ] U ^ z Q Z = l l q $ $ 1.A b Q >.l.@X7XyX2X XB.B.s.0.4.4.0.p.N.1X1X5X1X$X,Xr.) pXhXaXdXhXsXuXaX",
"w y w w Y ' J.K.G.J._ 2 + 8 t D `.W.e.u.Q s h u.) - $ z d.6.<.7.<.b.$X7XyX7X-X@X@X@X|.C.B.N.|.1X2X7X1X6X1X,Xy.> E pXdXuXiXiXdXdX",
"w 7 7 7 9 P ` D.H.J.E 2 < 8 8 i Q.uXy.a.5.A Q t.R.u.1.6.d.<.<.,.d.B.#X4XyX7X=X-X=X-X@X-X:X2X8X7X7X5X5X5X;X6Xj.q u E pXjXiXiXaXdX",
"7 7 e w 2 y B Y ' F.( w + 9 9 i Q.iX<Xy.a.6.1.>.6.a.6.>.;.,.,.B.s.B.@X8XyX7X3X-X-XoX XoX=X2X2X2X7X2X2X4X&X,Xy.> P r Q.aXsXhXiXsX",
"2 w e e 7 B y y _ F.( y + 7 9 V _.uXqXx.m.s.i.>.Q A ;.,.>.0.f.].B.v. X4XeX7X3X#X@XoX|.|.@X@X-X2X=X2X$X;X&X,Xe.% p i _.bXpXpXhXzX",
"7 ; 2 y w y w H ( D._ i + 8 9 i ( j.Q.y.a.m.p.d.7.>.7.7.0.B. XB.v.s.N.=X7X7X;X#XXX XC.N.].|.oX.X@XoX$XXX{.OXU > p u ] Y.` ( ] pX",
"7 7 w e w B y H _ D._ H < t t y u + : C T.c.c.c.i.i.p.B.].@X XB.p.p.v.@X7X7X=X=X#X|.v.i.p.v.C.].]. X[.}.E.T.l 6 i p P x u p i E ",
"7 7 y B w y y H _ ' ` G t D F 4 8 + X * a.R.'.]. X X|.-X#XXX|.].s.p.B.|.4X7X1X1X=X@XoXv.p.0.0.0.q.z.l.i.x.5.> q i u p r 9 r i Y ",
"7 y e 3 w e Y Y ` ' E 9 8 < 4 4 O   X $ u.E.R.|.oX-X-X-X-X#X|.p.q.v.C.|.7XyX2X1X2X-X:X-X|. Xp.,.=.=.>.8.x.Z * p u 9 9 u i P R E ",
"w 3 3 w e 7 7 V / U * l x & u + 5 0 p 6 / T.R.|.-X-X:X-X@XoXv.,.,.s.]..X:XtX5X2X1X#X1X2X=X2X-X].q.4.7.q.y.k > 9 9 i P i x V I I ",
"w w 7 7 > r C ^ t.x.T.!.<XT.r 6 9 1 1 + * y.R.'. X-X.X|. XB.0.=.p.v.C.-X#X8X5X2X-X@X2X4X2X XXX].p.7.l.m.r.$ 6 u P i u u q 6 u D ",
"7 7 X r W.OXOX%X$XtX,Xk.u.r.c * 0 < < 1 & / x.c.B.C.N.].N.d.0.q. XN.v.|.#X9X9X=X=X@X$X=X=X{.@Xb.A =.l.M.Z X 0 9 u i 9 5 > 0 u i ",
"7 ; W T.,X$X].].-X+X}.c $ l P u D G G D p q ) x.s.v.c.c.p.4.q.C.|.].s.N.@X:X=X#X@X@X#X@X}.[.}.4.A 7.l.k., % 0 6 9 9 8 u r q u H ",
": r !.,X$X-Xf.2X=XE.C % D I T T J G D y t + l 5.t.i.i.t.4.4.p.C.]..Xn.N.|..X.X.X#X#X].l.q.b.i.8.b.i.i.S $ & 6 8 5 8 2 + q p p i ",
"> l OX%X=XN.,..Xa.c + H T J L K K y y t 4 2 . q 5.5.5.9.>.q.N.b.c.N.c.n.}.|..X].+XN.4.M >.i.4.l.V.q.8.g . : 5 5 5 8 9 5 q r 9 D ",
"  l ,X9X%Xc.M - $ X H G G T J K D y t < 2 < + X , ^ 5.~ 5.6.q.i.6.6.6.7.i.R.n.n.'.<.j b 4.4.4.[.m.k.~ . X 6 5 2 5 8 6 6 0 q 9 9 ",
". r.,X{.}.n.n.Q $ 6 D J T J J J D 8 8 < < + + . . * ! e.5.~ A A >.>.Z b A >.7.>.A h b ,.4.,.l.M.c.t.g . + 5 2 2 5 5 6 : 6 9 9 u ",
"l E.5Xi.>.l.c.}.E.U u T D D J K D O < < O O +   . . . c e.5.Z Z A b A A b b h d h M >.*.q.p.p.c.m.^ . . & 5 2 5 5 6 : : 6 9 9 u ",
"~ OXR.i.7.>.>.d.d.T.R H T D J T D o O < O O O   X . . . k ^ 5.5.7.A b A ;.;.;.M *.*.M 0.v.4.p.n.x., . X : + < 5 5 5 : > 0 9 8 9 ",
"y.<X1.>.8.4.4.4.>.~ i H G G D J D O o + O O o     X .     * / e.7.<.;.*.*.[ :.:.=.,.w.d.:.,.].[.5.. X % & + 5 5 ; : : : 6 6 5 8 ",
"e.W.5.7.7.A 0.7.x.) u G G D T G D < o O < o   o O   X       X c 5.7.<.*.:.0.3.3.2.2.2.*.,.C.[.M.g   X + + ; 5 5 : : & & : 6 5 8 ",
"p r.W.a.1.>.i.t.y./ H J G D D G D 8 o O O o o o O O         . X l 5.t.5.A n *.;.*.M N >.c.{.E.5.. . + + + 5 5 & 5 : & & 5 5 5 8 ",
"v d :.:.f f f f :.M v m m m v v v d @ # # @ @ # # # # # # # # # # j 2.w.w.3.-.[ [ [ -.g.Z.Z.f.f # # a a a a a a a a a a s s s s ",
"&.&.%.%.o.O.O.$.&.&.&.&.&.@.#.#.@.&.&.&.@.+.@.@.@.@.+.+.+.&.&.&.$.$.$.%.%.%.%.%.%.%.%.o.o.o.o.O.$.&.+.+.&.&.&.&.$.$.$.$.&.&.+.+.",
" .| | | | } } } }  .....| | X.X.} | | | | } } } } } } } } } } } | | | | | | } } | | | | | | | | | } } } } } | | | | | | | | } } ",
"| | | | | } } }  . ...| | | { | | | | | | | | } } } } } } } } | | | | | | | } } } | | | | | | | | } } } | | | | | | | | | | | } ",
"| | | | } } } } } } | | | { { { | | | | | | | | | | } } } } } | | | | | | | | | | | | | | | | | } } } } | | | | | | | | | | | | ",
"| | | } | | | | | } } } | { { { | | | | | | | | | | | | | | | } } } } } | | | | | | | | | } } } } } | | | | | | | } | | | | | | ",
"| | } } } } | | | | | | | | | | | | | | | | | | | | | | | | | } } } } } | | | | | | | | } } } } } } | | | | | | } }  .} | | | | ",
"....} } } } } | | | | | .. . . . .} | | | | | | | | | | | | | | } } } } } | | | | | | } } }  .} } | | | | | | |  . . . .| | | | ",
".... .X.X.X.} } | | | .... . . . . .} } | | | | | | | | | | | | } } } } } } } } } } } }  . . .} | | | | | | | |  . . . ...| | | "
};
