/* XPM */
static char *_8fbd041537c40639fd3b783f10f0b79rITjcEkWV7QdxtzA[] = {
/* columns rows colors chars-per-pixel */
"64 64 256 2 ",
"   c #0E0001",
".  c #140302",
"X  c #13020B",
"o  c #1C0707",
"O  c #1D0C13",
"+  c #1B0917",
"@  c #1F1216",
"#  c #230B07",
"$  c #281509",
"%  c #240D16",
"&  c #2C1915",
"*  c #24131B",
"=  c #2B151B",
"-  c #2D1A1C",
";  c #271415",
":  c #331D1C",
">  c #341C18",
",  c #32190E",
"<  c #39241B",
"1  c #2C1B23",
"2  c #251B2B",
"3  c #2C1D2C",
"4  c #261624",
"5  c #331E23",
"6  c #331D28",
"7  c #2A1E31",
"8  c #220F22",
"9  c #2D232D",
"0  c #2B2027",
"q  c #352224",
"w  c #3B2424",
"e  c #33232B",
"r  c #3B252C",
"t  c #3D2B2B",
"y  c #392927",
"u  c #2C2333",
"i  c #2D2735",
"p  c #332533",
"a  c #342A34",
"s  c #3C2A33",
"d  c #3A2C3B",
"f  c #352738",
"g  c #3D333B",
"h  c #3B3438",
"j  c #1D1524",
"k  c #44301B",
"l  c #422B25",
"z  c #422D2B",
"x  c #452A27",
"c  c #44322D",
"v  c #4B322C",
"b  c #483525",
"n  c #533A2A",
"m  c #432D33",
"M  c #452E38",
"N  c #443234",
"B  c #4A3434",
"V  c #4D3A35",
"C  c #45323A",
"Z  c #4B353A",
"A  c #4C3A3C",
"S  c #453A3B",
"D  c #523633",
"F  c #533B35",
"G  c #533D3B",
"H  c #583D39",
"J  c #55423C",
"K  c #5B433B",
"L  c #5C4839",
"P  c #524132",
"I  c #63483B",
"U  c #66513C",
"Y  c #3D3742",
"T  c #382E41",
"R  c #433B44",
"E  c #4A3A45",
"W  c #543D41",
"Q  c #563D46",
"!  c #493A4E",
"~  c #4A434B",
"^  c #554344",
"/  c #5B4444",
"(  c #5C4A44",
")  c #5B454A",
"_  c #5C4B4B",
"`  c #544449",
"'  c #4C4452",
"]  c #5D4C52",
"[  c #574855",
"{  c #5E514B",
"}  c #644A44",
"|  c #6B4E44",
" . c #634D4B",
".. c #6A4D4B",
"X. c #624646",
"o. c #64524B",
"O. c #6C534C",
"+. c #6A5646",
"@. c #73554A",
"#. c #745A4C",
"$. c #77594A",
"%. c #624D53",
"&. c #694D56",
"*. c #645253",
"=. c #6B5453",
"-. c #6D5C54",
";. c #6C5B5A",
":. c #675458",
">. c #725553",
",. c #745B54",
"<. c #7B5D52",
"1. c #735D5B",
"2. c #7B5F5B",
"3. c #73565A",
"4. c #704C40",
"5. c #74614B",
"6. c #6C625C",
"7. c #746254",
"8. c #7C6155",
"9. c #74625C",
"0. c #7C635B",
"q. c #7D6A5B",
"w. c #7B6856",
"e. c #6E5C63",
"r. c #745E61",
"t. c #795F65",
"y. c #746363",
"u. c #7B6563",
"i. c #7D6B64",
"p. c #7D6A6A",
"a. c #786569",
"s. c #7B6A6E",
"d. c #805E5A",
"f. c #826456",
"g. c #84655B",
"h. c #876A5B",
"j. c #87725D",
"k. c #83644F",
"l. c #846B63",
"z. c #8B6D62",
"x. c #836D6B",
"c. c #846863",
"v. c #847264",
"b. c #8B7364",
"n. c #85736B",
"m. c #8B746C",
"M. c #8C7A6B",
"N. c #94756A",
"B. c #937B6C",
"V. c #9A7C6D",
"C. c #937766",
"Z. c #867373",
"A. c #8E7B73",
"S. c #8B7777",
"D. c #937C74",
"F. c #937F7A",
"G. c #997D74",
"H. c #826E72",
"J. c #A17F73",
"K. c #95816B",
"L. c #9A836C",
"P. c #968274",
"I. c #9B8374",
"U. c #9B857B",
"Y. c #9E8B7C",
"T. c #978679",
"R. c #A3867B",
"E. c #A38B7C",
"W. c #A48A77",
"Q. c #A7947B",
"!. c #AF9679",
"~. c #9C8A84",
"^. c #9A8787",
"/. c #9B8D8E",
"(. c #A38C83",
"). c #AA8D82",
"_. c #A38D8A",
"`. c #AA8C8C",
"'. c #A49284",
"]. c #AB9384",
"[. c #A5928B",
"{. c #AB948B",
"}. c #AC9A88",
"|. c #B39C84",
" X c #B2958A",
".X c #B39A8C",
"XX c #B49889",
"oX c #A38E91",
"OX c #A59392",
"+X c #AC9996",
"@X c #B49C93",
"#X c #B49E9A",
"$X c #B89C94",
"%X c #B08F86",
"&X c #AEA08B",
"*X c #B5A38C",
"=X c #BAA48B",
"-X c #B4A293",
";X c #BBA394",
":X c #BBA994",
">X c #B3A29B",
",X c #BBA49B",
"<X c #BBAA9A",
"1X c #B9A8A5",
"2X c #BFB0AD",
"3X c #AF9AA3",
"4X c #C3AB9D",
"5X c #C3A897",
"6X c #C8B59A",
"7X c #C6AF8F",
"8X c #C3ABA2",
"9X c #C7ACA4",
"0X c #CBB3A4",
"qX c #CCBAA4",
"wX c #C8B5AA",
"eX c #D1BDA4",
"rX c #D3BAAA",
"tX c #CCBAB4",
"yX c #D3BDB6",
"uX c #D5C2AC",
"iX c #DAC6AA",
"pX c #DBC4B4",
"aX c #D6C3BC",
"sX c #D9C7B6",
"dX c #DFD0BD",
"fX c #E2CDB5",
"gX c #E3CBBC",
"hX c #E5D2BB",
"jX c #E9D6B9",
"kX c #E9D3B3",
"lX c #F3E2BE",
"zX c #D5C19E",
"xX c #D3BDC6",
"cX c #DBC8C4",
"vX c #E2CDC7",
"bX c #EAD5C4",
"nX c #ECDBC3",
"mX c #EDDCCB",
"MX c #E5D3C7",
"NX c #F2DCC4",
"BX c #F4DCCA",
"VX c #ECDAD3",
"CX c #F3DDD8",
"ZX c #F5E3C4",
"AX c #FAE5C5",
"SX c #F5E4CB",
"DX c #FAE4CC",
"FX c #FCEACD",
"GX c #F8EACB",
"HX c #FEECD3",
"JX c #F8E6D6",
"KX c #FFF3DB",
"LX c #FFF4D6",
"PX c #F6E9CC",
"IX c #FFF7E4",
"UX c #FAE5E2",
/* pixels */
"Y u 9 `  .=.@.g.C.C.H g.O.L 9.~.N.(.,XA.y.S Y ~ R C ! Q ( F _ _ ) / F / ! ! g R ' R A u.A.<XR.C.E.7.} ,.g.I V.z.z.@.=.*.` p u Y ",
"9 a a e N / m.z.N.C.<.C.b.P.n.{.8X(.(.n.^ h Y ' a p d 6 z ( 0.F.F.c.( N 3 T d d ' Y C / n._.U.4X{.B.P.v.N.f.C.V.z.c./ m r a d u ",
"e 0 _ ` V O.O.,.g.R. X;X$X@X@X,X).d.3.) d Y u i 9 u f s :.E.;XfXfX;XU.;.p u p 3 i u d M ) 1.2.R.,X-X.X.X;XXX).g.,.....Z / *.0 e ",
"E N ^ :. . .O.#.g.R.$X.X X0X8X8.d.| / t 3 f u i ' 4 4 ] A.Q.|.iXiX|.E.A.` 4 8 [ i u p p r W ..c.8.4X0X XXX$XR.g.,.} >.X.1.^ N A ",
"%.A z X.m.8.8.@.h.W.W.9X XD.O.2.@.I I  .A e 2 2 [ * 1 :.K.7XiXkXjXeX7XC. .1 % ] 2 4 1 W  ./ X.>.3.,.F. X0XW.L.h.U 8.8.F./ B Z :.",
"r./ =...l. XI.j.h.C.XX4X{.>.X.H <.E. XE.M.;.s + E :.] ( W.lXAXAXAXAXkXW.( _ :.V O r =.M.(.{.`.>.H  .,.{.4XXXC.h.j.I. Xh.| >./ r.",
"l.c.0.} | ).z.n 8.E.0X].O.} D ,.5XfXuX|.Q.v./ / Y.yXe.m ].jXjXGXGXZXfX|.z 1.yXP.J ( C.].}.0XdX4X,.z } #.).9X].<.n N.R.| } g.g.c.",
"<.m.z.@.@.@.I $.5X$XE.<.| v X.V.:XeXfX7XfX5Xz.F c.9Xm t 9XSXKXPXPXKXSX4X5 Z 8Xg.F v.6XiX6XfXeX<Xm.K v O.8.E.$X5X@.| @.@.<.f.N.f.",
"<.<.N.8.$.f.@.rXpX$XD.,.H l ,.(.}.6XjXFXNXNXXXb o ..1 :.wX[.'.mXnXY.(.wX&.= >.. n ,XbXDXAXjX6XQ.Y.,.< K >.D.@XgX0X$.h.<.<.N.<.<.",
"f.| h.N.b.G.R. X;X9XR.} l > =.D.-XZXFXZXDXNXpX8X} ; 1 r < ,   '.'.. $ : m 1 % X.8XvXBXDXFXGXlX;XF.=.: w  .(.8X;X.XR.V.N.V.h.4.h.",
"c.z.).R.G.5X5XW.V.].8X2.l & G x.pXDXAXAXAXHXvXD.^ o * Z l.v.+.uX0X+.j.m.A * % ) F.VXHXDXlXlXNXqXc.A = l 0.<XE.B.W.5X$XV.R.).z.g.",
"<.<. X).5XXXV.#.<.I >.,X .# W =..XhXNXHXFX6X< $ V _ X ) MXNXhXNXNXfXNXCX_ X %.N o y qXLXFXAXjX).../ % =.#X>.I 0.,.I.XX;X X Xg.<.",
"$.8.).9X].g...X.v < :  .S.Z.u.l v.fXDX].iX*X# -.-X>XX O (.jXL.FXAXL.fXY.* X #X-X+.$ 5XiX*XDXpX<.x x.Z.A. .w < D X.| 8.).9XG.<.#.",
"8.b.].$Xc.O.v v v l : # 1.vX_.. O.rX+.. k FX;XuXKX[.* O J j.j.K.K.j.j.J O * [.KXqX&XJX< . #.yXO.o OXvX;.# : l x v D O.z.$X).N.8.",
"m.E.@Xl.O.H O.c.l.x.H G x.p.Z.5 Z G $ U 5.jXHX0X-X;.1 * z aXCX-.o.MXaXc % = 8.;XuXHXjX5.L & ^ C q F.H.p.G G x.c.0.O.H O.l.$X(.m.",
"x.{.B.8.} 8.)..X).).D.1.c o ; N X C U.6XNXuXIX0X-.OX] X ^.OXq :.:.< /.S.X _ (.+.qXLXuXhX8XT.C + M : . v ,.U.(.R..XR.@.} 2.D.{.m.",
"$X{.,.O.+.4XeX=X6XuXsX-XP.Y.z O 4 4 OXmXnX7.I.7.+XcX1XS _ A _ 9.-.=.B ^ N 1XcX#X9.U.0.vXVXOX3 4 + t Y.I.,XsXsX5X:X0X;X} ..,. X#X",
".XD.O.n v.pXfXeXjXAXDXhXhXq.v r.r X = 0.v.&X[.o. .= E A O ^ 2XtXaX>X^ % A A - *.=.[.#Xi.i.& X 6 a.v 8.jXhXJXDXjXeXfX0X0.D =.A.@X",
"n.i.( l v.0XqXnXlXFXZXLX-X$ +.vXn.% = ; ( VX .J o.i.a.q e Z /.wX2X^.A s - Z.i.o./ _ VXK ; = % Z.vX+.$ :XKXZXSXZXjXqX<Xq.t _ i.m.",
"A.i.^ z 9.'..XhXAXFXlXFXU # }.JX.XV O . :.^.r a.^.aX>Xt _ - ^ i.i./ = ` s +XaX~.p.q ^.o.  O V >XJX].# +.LXGXGXSXfX}.Y.9.t ^ p.A.",
"9.S s s / n..XnXDXHXFXHXpXb.qXsXY.q.F.r.p R ) 1XaX1Xn.- _ o.& V V & / :.1 p.>XaX>X^ C q 1.F.q.U.pX4Xb.uXHXDXJXDXbX{.m./ 6 s S 9.",
"` h d s s *.v.qXgXNXbXb E.IXGX:Xv.JX+X9.R 4 r a.S.H.G t T.i.U._./.^.S.S.N ^ v.n.y.r - N 1.+XJXq.<XJXIXR.P BXBXgX4Xl.*.s f d s ` ",
"Y R 3 3 4 s / 9.E.bX7.$ O.wXIX*X~.n.& _ ( - ] * = N W OXi.< } JXJX=.q 1.[.J c - * *.- / ( $ A.~.<XIX<XL $ 0.MXP.+.J s 4 u 7 R Y ",
"' ~ a 9 @ @ :.l L @X> J tXvXv.q.^.A :.OX>X/ e t.a.Z.VXUXB l > m.m.> z B JXMXF.;.e.e G >X}.o.G ~.w.n.dXtXG - ,X( y _ @ 4 u i ' ~ ",
"~ g 2 [ ~ :.1X( o D c ,XvX0X+.aX1.] ;.cX1X-.- S.H._ oX+X=.P.+X-X4X@Xm.=..X'._ a.S.- 1.9XaX-._ y.yX+.0XMX#XZ D o U >X*.[ [ 9 g R ",
"Y 4 u * e s.cX[.G # : / ,.=.( cXW A 1XaX[.9.c [.t N w ~.aXM.} P.B.I D.aXU.< l z /.N i.OXaX>XZ ) vXK O.9. .= # / @XcXy.1 4 e 0 S ",
"! d p @ e :.:.5 = - o . O % = ^.s.A /.OX1.V 7.JX,.w 8X_.U.l.>.P.L.#.h.P._.9X< 7.JX:.S 9.+X/.Z a.^.1 = X   O 6 * : :.:.1 8 f d E ",
"R e e ] *./ m W ) z 1./ = = % o N y t t 1 ^ aXmXI.'.U.< A.{.@X.X*X=X].b.l ~.].P.CXyX^ : t y t C * O * :  .*.r %.Z z _ *.] p 3 R ",
"W q -.I.K.K.Y.yXD.> ,XMXn.G c Z.( $ t E %.S. .c q.sXB.b.{.,XD.I.L.I.,X[.D.B.sXh.v  .A.*.A t %  .Z.N J M.MX,X& F.tXY.C.K.F.:.t W ",
"B H P.W.!.iXhXJXP., P.SXuX7.aX[.c =.C = i.u.: c '.B.j.E..Xb.B.Y.I.B.D.@X'.b.C.].z - y.p.; A :.t OXaX#.iXSXK.$ U.JXfXiX!.I.F.H B ",
"W >.}.|.7XNXZXIX'.. 7.hX&Xw.cXt ( 1X+X( y /.( w 1XF +.*XW.C.].).(._.F.Y.=X$.P 4X< / oXy V OX2X{ N cX5.Q.sX#.  }.KXnXAX7X}.{...Q ",
"&.3.uX6XfXNXSXHXmX-XuXmXLXY.n.%.*.2XwXn.V OXCXn.8XB.Q.|.K.E.E.(._._.Y.B.!.W.L.4Xx.CXOXZ l.wXtX*._ x.Y.LXZXqX.XmXHXFXjXiXrXrX3.&.",
"%.,.rXeXiXlXSXJXmX{.*XhXDXK.m._ *.2XwXn.V OXCXm.8Xb.E.|.C.W.].(._._.R.P..XW.C.4Xl.VX+XZ x.9X9Xo._ i.T.SXsX&X'.mXJXSXjXiXuX0X=.:.",
"W ...XQ.7XZXnXKX'.  +.pXW.5.MXN E +XOXV y _./ l 8XF <.*XI.C.E.{.{.(.P.I.=Xw.b 4X< G oXq V _.>XJ Z MX+.Q.qXU . @XIXnXjX=X}.[. .Q ",
"D K D.I.!.fXiXBXF.< P.DXuX+.wX#XV _ m - i.1.& l (.P.l.).$Xv.B.I.I.I.v..XQ.j.I.).l & 1.p.5 M ) N #X1X#.pXDXL., F.BXiXzX!.I.F.G G ",
"A 5 X.D.B.K.I.wXx.& -XdXl.J y y.^ O e N _ F.o.v i.pXD.D.{.,XK.K.K.L.;X].b.B.dXh.c o.T. .C r % ) a.w J q.gX.X: U.0XI.C.K.T.%.q A ",
"! 3 f Q  ./ y t ` e :._ @ @ + @ ^ t c A - ^ aXVXU._.~.l m.}..X|.*X].|.b.< _.(.U.VXaXG - A N s ` % O O = ) *.4 ` N y ^ _ ] p 9 E ",
"! f f + 3 e.r.e 1 1 X   O * 4 /.p.J ~.+Xa.G ;.JX-.z 1X_.Y.q.#.P.I.#.w.P.(.1Xw 1.UX1.V u.>X[.A e./.* = O   + 1 e q 6.:.3 + p f ~ ",
"R 9 3 4 6 H.cX[.G # q y.i.-.{ cX^ B 1XcX#Xy.N OXt z < P.aXP.L P.D.} B.pXU.: z m OXB 9.@XcX@XN *.cXo.7.0.r.- ; V '.cXa.e * 9 9 R ",
"R g 9 [ [ %.[.K # } B >XmXuX+.tXu.*.:.tX2X*.= S.s./ '.-XO.A.#X#X,X@XF.O.@XOX) s.S.-  .8XaXO. .p.wXo.pXmX+XA ..# L '.%.! ] 1 g R ",
"~ ~ f 7 4 O  .b O.9X: H rXhXI.w._.F  ./.OXS r e.:.Z.vXIXv w : x.m.w y B UXMXS.*.y.y V [.~.o.V '.0.U.hXqXG 5 wX| b ( + 4 3 p ' ~ ",
"Y Y u 7 @ m ( h.].JXx.# | iXIX,XY.~.& A ^ e ` 1 ; c P '.q.> *.UXUX} < 1._.( y q 5 W q ^ A - ~.Y.uXKXuXU # T.bX.Xq./ s 8 u u R R ",
"~ a i f a 6.M.qXbXBXbXI ].KXSX}.O.VX>Xy.C 4 t y.F.n./ q A.n././.~.T.n.Z.y ( n.A.9.t * M a.1XVX-.-XmXKXY.L SXSXhXqXv.:.s u f h ` ",
"6.S g e _ n.&XnXDXGXDXHXeX5.|.sXY./ ;.` r E _ >XcX>XZ.y _  .& J V < J :.q Z.1XaX@X .C p [ ;._ _.pX}.5.uXSXGXSXGXjX'.n.` e g A ;.",
"P.i.W r i.].*XfXNXFXFXHXU # E.JX_.Z %   _ ~.> 9.A.tXOXq ^ q o.v.v.O.q W q [.tXA.9.: S.` X * Z ~.JXY.# +.LXAXHXAXfX|.].1.m Q u.U.",
"m.c.) B l.4XeXNXFXNXDXHX.X, | cXa.O * & V vXi.(  .p.p.q s C OXtXtX[.N N q p.y.*.^ i.cXB = * O y.aXO.$ :XFXAXAXAXlX6X5Xl.x  .c.m.",
"$XD...H l.rXfX6XfXHXBXhXMX,.B e.6 X ; v.q.j.}.i.r.5 S s % ` +XOXOX+X_ ; N N e :.y.+Xv.q.i.$ X 1 ;.z q.nXjXZXFXkX6XiXuXb.B =.G. X",
"#X X>. . .$X0X|.:XqXsX}.i.U.s X 4 1 [.nXnXj.P.7.1XxX3XC ] V t :.] N N / s 1XxX3X9.T.v.nXmX+X6 * X m F.v.}.pXuX4X*XqX:XL O.2.[.,X",
"x.[.D.1.X.O.P.).U.F.m.=.z . 1 s + r D.4XfXuXIX4X/ S.E X a.1X6.6.y.:.+Xp.X E Z.X.wXIXuXhX-XU.C + M * X y o.m.F.P.).D.O.I 0.m.[.n.",
"m._.@Xu.O.B H >.2.3.G Z a.S.Z.5 N X., P U hXHX0X,Xi.* @ 5 _.tXi.9.tX@X< * 1 u.,XqXKXsXP L &  .N 5 S.Z.p.B B 2.1.>.F K O.0.,X(.m.",
"q.v.(.$X8...D x w w : # :.cXOX. +.fXf.# k SX].0XKXT.= * K q.L ,X:XU #.L O 1 ~.KXwX'.PX< # q.pX .. OXvX;.o - 5 w x v } z.$X).M.8.",
"@.8.).0X).g.} / D w w  .Z.p.p.l 5.rXBX|.sX&X. -.-X'.X * E.DXqXSXSX:XDX).% X [.<X-.. =XfX!.DX0X,.z x.y.x./ < w D K @.8.].rXR.<.#.",
",.<..X.X;X XN.$.8.K ,.@X .% Z  .].bXDXHXHX6X< < c _ X ^ MXfXeXnXnXeXfXvXE X  .v $ b 6XHXHXAXkXE.J G o =.#X>.I <.| V.$X$X X X,.8.",
"N.z.%X).V.5X4XR.B.R.,X,.w = m u.rXNXAXAXZXHXMXA./ % + Z l.j.k ;X*Xn 8.0.C O % / D.MXKXZXAXZXlX6X1.Z & l 1.,XE.V.W.$X5XV.R.).N.z.",
"g.@.h.N.V.V.V.].;X0XY.X.w > ..m.<XnXFXAXSXhXpX.XW % 4 m l > . -X}.. < l C 1 % ..8XrXBXDXlXFXjX:Xm.} < l ..(.4X$X XR.N.G.J.h.@.f.",
"<.<.N.<.<.f.$.rXgX.XG.O.H w O.U.E.qXjXZXZXhX}.k # X.1 :.9X;X<XmXSX<X.XwX] = ..o v .XhXDXAXkX7XQ.U.O.< F ,.V..XgX0X@.h.<.<.V.$.f.",
"f.C.g.@.@.8.| 8.4X XE.8.O.v H l.*X6XfXqXuX,X8.F 0.8Xz : -XNXHXJXPXKXjX{.5 m 8X2.F 0.:XiX6XfXqX*Xv.D v O.g.E. X0X$.U $.@.$.z.z.<.",
"g.2.g.| @.I.j.n <. X5X].#.K v +.*XsXuXQ.Y.n.) W (.yX;.t W.kXDXAXGXnXkXI.q e.yXU.^ ^ v.Y.].qXdX-XO.v I #.].4X%X$.n b.R.| I g.2.c.",
"t.G ....z.E.W.j.h.C.XX4X{.>.( D +.I.E.U.n.{ p + E *._ ( K.kXAXAXlXlXkXC.^ ] *.W + p *.x.U.(.R. .D  .<.].5XXXC.k.j.W. Xz.O. ./ r.",
"%.Z Z ..m.8.<.@.f.V.I.0X{.D.,.,.} K D K N 9 2 2 [ @ * _ j.=X6XkXkX6X!.b._ 2 * [ 2 2 4 A / D H O.,.>.D..X0XL.V.f.$.f.$.N.X.B A %.",
"E s ) =. ...| | g.I.;X].].rX-X0.0...D z 1 u 9 a ' 2 2 ! x.Q.!.iXiX!.Q.D.R j 7 ! u i p 3 q H ..0.0.-XyX.X X$XG.g.| } ,. .1.A N A ",
"e e ` _ B X...,.f.%X%X-X.X{.-X,XU.c.t./ s d p u 2 i f u ^ N.$XiXrXXXI. .0 i 7 7 i u d M _ 1.0.(.,X,X}.$X;X).%Xf.f.| ..m G ] 0 a ",
"3 d 4 s Z X.c.h.V.z.f.C.l.I.M.{.8XF.(.x._ s g ' g 9 i 3 y D 1.x.m.1.H 5 p T 3 C ' g h ( n.Y.U.8X{.A.P.z.V.g.C.N.h.c.X.B e p f 2 ",
"T u f R %.=.O.z.z.C.I f.#.+.7.Y.v.).8Xm.6.~ R ! g g ~ E / D W ) / / H / ! ! S N ' g P 7.M.<XE.b.Y.,.L #.h.I N.g.g.@. . .W p u Y "
};
